<svg xmlns="http://www.w3.org/2000/svg" viewBox="0 0 64 64" role="img" aria-labelledby="title">
  <title id="title">Database server</title>
  <defs>
    <linearGradient id="database-blue" x1="10" y1="8" x2="54" y2="56" gradientUnits="userSpaceOnUse">
      <stop stop-color="#1676b8"/>
      <stop offset="1" stop-color="#002b64"/>
    </linearGradient>
  </defs>
  <ellipse cx="32" cy="15" rx="22" ry="9" fill="url(#database-blue)"/>
  <path d="M10 15v15c0 5 9.8 9 22 9s22-4 22-9V15c0 5-9.8 9-22 9s-22-4-22-9Z" fill="url(#database-blue)" opacity=".92"/>
  <path d="M10 30v15c0 5 9.8 9 22 9s22-4 22-9V30c0 5-9.8 9-22 9s-22-4-22-9Z" fill="url(#database-blue)" opacity=".82"/>
  <path d="M47 33.5c3.5-1.3 5.8-2.9 7-4.8M47 48.5c3.5-1.3 5.8-2.9 7-4.8" fill="none" stroke="#7fd1ec" stroke-linecap="round" stroke-width="2"/>
</svg>
